<mxfile host="app.diagrams.net" modified="2024-07-19T21:57:19.655Z" agent="Mozilla/5.0 (Windows NT 10.0; Win64; x64) AppleWebKit/537.36 (KHTML, like Gecko) Chrome/126.0.0.0 Safari/537.36" etag="ht-9OEz-C4kN7hDRonAr" version="24.7.2" type="device">
  <diagram name="Página-1" id="3GRrxdBLpNeh8X1fXFQT">
    <mxGraphModel dx="1195" dy="643" grid="1" gridSize="10" guides="1" tooltips="1" connect="1" arrows="1" fold="1" page="1" pageScale="1" pageWidth="827" pageHeight="1169" math="0" shadow="0">
      <root>
        <mxCell id="0" />
        <mxCell id="1" parent="0" />
        <mxCell id="aS2krTPO7rlLq4S60YUW-1" value="Autenticação de usuário" style="swimlane;horizontal=0;whiteSpace=wrap;html=1;startSize=23;" vertex="1" parent="1">
          <mxGeometry width="540" height="330" as="geometry" />
        </mxCell>
        <mxCell id="aS2krTPO7rlLq4S60YUW-2" value="" style="edgeStyle=orthogonalEdgeStyle;rounded=0;orthogonalLoop=1;jettySize=auto;html=1;" edge="1" parent="aS2krTPO7rlLq4S60YUW-1" source="aS2krTPO7rlLq4S60YUW-3" target="aS2krTPO7rlLq4S60YUW-5">
          <mxGeometry relative="1" as="geometry" />
        </mxCell>
        <mxCell id="aS2krTPO7rlLq4S60YUW-3" value="Usuário" style="shape=umlActor;verticalLabelPosition=bottom;verticalAlign=top;html=1;outlineConnect=0;" vertex="1" parent="aS2krTPO7rlLq4S60YUW-1">
          <mxGeometry x="40" y="67.5" width="30" height="60" as="geometry" />
        </mxCell>
        <mxCell id="aS2krTPO7rlLq4S60YUW-4" value="" style="edgeStyle=orthogonalEdgeStyle;rounded=0;orthogonalLoop=1;jettySize=auto;html=1;entryX=0.005;entryY=0.63;entryDx=0;entryDy=0;entryPerimeter=0;" edge="1" parent="aS2krTPO7rlLq4S60YUW-1" source="aS2krTPO7rlLq4S60YUW-5" target="aS2krTPO7rlLq4S60YUW-6">
          <mxGeometry relative="1" as="geometry" />
        </mxCell>
        <mxCell id="aS2krTPO7rlLq4S60YUW-5" value="Dispositivo" style="verticalLabelPosition=bottom;html=1;verticalAlign=top;align=center;strokeColor=none;fillColor=#00BEF2;shape=mxgraph.azure.computer;pointerEvents=1;" vertex="1" parent="aS2krTPO7rlLq4S60YUW-1">
          <mxGeometry x="120" y="75" width="50" height="45" as="geometry" />
        </mxCell>
        <mxCell id="aS2krTPO7rlLq4S60YUW-6" value="microsserviço&lt;br&gt;autenticacao" style="aspect=fixed;sketch=0;html=1;dashed=0;whitespace=wrap;verticalLabelPosition=bottom;verticalAlign=top;fillColor=#dae8fc;strokeColor=#6c8ebf;points=[[0.005,0.63,0],[0.1,0.2,0],[0.9,0.2,0],[0.5,0,0],[0.995,0.63,0],[0.72,0.99,0],[0.5,1,0],[0.28,0.99,0]];shape=mxgraph.kubernetes.icon2;kubernetesLabel=1;prIcon=pod" vertex="1" parent="aS2krTPO7rlLq4S60YUW-1">
          <mxGeometry x="248" y="47.5" width="83.33" height="80" as="geometry" />
        </mxCell>
        <mxCell id="aS2krTPO7rlLq4S60YUW-7" value="AWS&lt;br&gt;Cognito" style="outlineConnect=0;dashed=0;verticalLabelPosition=bottom;verticalAlign=top;align=center;html=1;shape=mxgraph.aws3.cognito;fillColor=#AD688B;gradientColor=none;" vertex="1" parent="aS2krTPO7rlLq4S60YUW-1">
          <mxGeometry x="450.0000000000001" y="125" width="60" height="60" as="geometry" />
        </mxCell>
        <mxCell id="aS2krTPO7rlLq4S60YUW-8" style="edgeStyle=orthogonalEdgeStyle;rounded=0;orthogonalLoop=1;jettySize=auto;html=1;entryX=0;entryY=0.5;entryDx=0;entryDy=0;entryPerimeter=0;exitX=0.995;exitY=0.63;exitDx=0;exitDy=0;exitPerimeter=0;" edge="1" parent="aS2krTPO7rlLq4S60YUW-1" source="aS2krTPO7rlLq4S60YUW-6" target="aS2krTPO7rlLq4S60YUW-7">
          <mxGeometry relative="1" as="geometry" />
        </mxCell>
        <mxCell id="aS2krTPO7rlLq4S60YUW-9" style="edgeStyle=orthogonalEdgeStyle;rounded=0;orthogonalLoop=1;jettySize=auto;html=1;exitX=0.995;exitY=0.63;exitDx=0;exitDy=0;exitPerimeter=0;" edge="1" parent="aS2krTPO7rlLq4S60YUW-1" source="aS2krTPO7rlLq4S60YUW-6" target="aS2krTPO7rlLq4S60YUW-10">
          <mxGeometry relative="1" as="geometry">
            <mxPoint x="510" y="97.5" as="targetPoint" />
          </mxGeometry>
        </mxCell>
        <mxCell id="aS2krTPO7rlLq4S60YUW-10" value="Postgres" style="outlineConnect=0;dashed=0;verticalLabelPosition=bottom;verticalAlign=top;align=center;html=1;shape=mxgraph.aws3.rds;fillColor=#2E73B8;gradientColor=none;" vertex="1" parent="aS2krTPO7rlLq4S60YUW-1">
          <mxGeometry x="450" y="10" width="62.22" height="70" as="geometry" />
        </mxCell>
        <mxCell id="aS2krTPO7rlLq4S60YUW-11" value="Ações disponíveis" style="swimlane;fontStyle=0;childLayout=stackLayout;horizontal=1;startSize=30;horizontalStack=0;resizeParent=1;resizeParentMax=0;resizeLast=0;collapsible=1;marginBottom=0;whiteSpace=wrap;html=1;" vertex="1" parent="aS2krTPO7rlLq4S60YUW-1">
          <mxGeometry x="186.66" y="167.5" width="206" height="150" as="geometry">
            <mxRectangle x="660" y="150" width="140" height="30" as="alternateBounds" />
          </mxGeometry>
        </mxCell>
        <mxCell id="aS2krTPO7rlLq4S60YUW-12" value="- Cadastrar (Médico / Paciente)&lt;span style=&quot;white-space: pre;&quot;&gt;&lt;/span&gt;" style="text;strokeColor=none;fillColor=none;align=left;verticalAlign=middle;spacingLeft=4;spacingRight=4;overflow=hidden;points=[[0,0.5],[1,0.5]];portConstraint=eastwest;rotatable=0;whiteSpace=wrap;html=1;" vertex="1" parent="aS2krTPO7rlLq4S60YUW-11">
          <mxGeometry y="30" width="206" height="30" as="geometry" />
        </mxCell>
        <mxCell id="aS2krTPO7rlLq4S60YUW-13" value="- Autenticar (Médico / Paciente)" style="text;strokeColor=none;fillColor=none;align=left;verticalAlign=middle;spacingLeft=4;spacingRight=4;overflow=hidden;points=[[0,0.5],[1,0.5]];portConstraint=eastwest;rotatable=0;whiteSpace=wrap;html=1;" vertex="1" parent="aS2krTPO7rlLq4S60YUW-11">
          <mxGeometry y="60" width="206" height="30" as="geometry" />
        </mxCell>
        <mxCell id="aS2krTPO7rlLq4S60YUW-14" value="- Decodificar token" style="text;strokeColor=none;fillColor=none;align=left;verticalAlign=middle;spacingLeft=4;spacingRight=4;overflow=hidden;points=[[0,0.5],[1,0.5]];portConstraint=eastwest;rotatable=0;whiteSpace=wrap;html=1;" vertex="1" parent="aS2krTPO7rlLq4S60YUW-11">
          <mxGeometry y="90" width="206" height="30" as="geometry" />
        </mxCell>
        <mxCell id="aS2krTPO7rlLq4S60YUW-15" value="- Excluir (Médico / Paciente)" style="text;strokeColor=none;fillColor=none;align=left;verticalAlign=middle;spacingLeft=4;spacingRight=4;overflow=hidden;points=[[0,0.5],[1,0.5]];portConstraint=eastwest;rotatable=0;whiteSpace=wrap;html=1;" vertex="1" parent="aS2krTPO7rlLq4S60YUW-11">
          <mxGeometry y="120" width="206" height="30" as="geometry" />
        </mxCell>
        <mxCell id="aS2krTPO7rlLq4S60YUW-16" value="Gestão agenda" style="swimlane;horizontal=0;whiteSpace=wrap;html=1;startSize=23;" vertex="1" parent="1">
          <mxGeometry y="340" width="540" height="260" as="geometry" />
        </mxCell>
        <mxCell id="aS2krTPO7rlLq4S60YUW-17" value="" style="edgeStyle=orthogonalEdgeStyle;rounded=0;orthogonalLoop=1;jettySize=auto;html=1;" edge="1" parent="aS2krTPO7rlLq4S60YUW-16" source="aS2krTPO7rlLq4S60YUW-18" target="aS2krTPO7rlLq4S60YUW-20">
          <mxGeometry relative="1" as="geometry" />
        </mxCell>
        <mxCell id="aS2krTPO7rlLq4S60YUW-18" value="Usuário" style="shape=umlActor;verticalLabelPosition=bottom;verticalAlign=top;html=1;outlineConnect=0;" vertex="1" parent="aS2krTPO7rlLq4S60YUW-16">
          <mxGeometry x="40" y="30" width="30" height="60" as="geometry" />
        </mxCell>
        <mxCell id="aS2krTPO7rlLq4S60YUW-19" value="" style="edgeStyle=orthogonalEdgeStyle;rounded=0;orthogonalLoop=1;jettySize=auto;html=1;entryX=0.005;entryY=0.63;entryDx=0;entryDy=0;entryPerimeter=0;" edge="1" parent="aS2krTPO7rlLq4S60YUW-16" source="aS2krTPO7rlLq4S60YUW-20" target="aS2krTPO7rlLq4S60YUW-21">
          <mxGeometry relative="1" as="geometry" />
        </mxCell>
        <mxCell id="aS2krTPO7rlLq4S60YUW-20" value="Dispositivo" style="verticalLabelPosition=bottom;html=1;verticalAlign=top;align=center;strokeColor=none;fillColor=#00BEF2;shape=mxgraph.azure.computer;pointerEvents=1;" vertex="1" parent="aS2krTPO7rlLq4S60YUW-16">
          <mxGeometry x="120" y="37.5" width="50" height="45" as="geometry" />
        </mxCell>
        <mxCell id="aS2krTPO7rlLq4S60YUW-110" value="" style="edgeStyle=orthogonalEdgeStyle;rounded=0;orthogonalLoop=1;jettySize=auto;html=1;exitX=0.995;exitY=0.63;exitDx=0;exitDy=0;exitPerimeter=0;" edge="1" parent="aS2krTPO7rlLq4S60YUW-16" source="aS2krTPO7rlLq4S60YUW-21" target="aS2krTPO7rlLq4S60YUW-109">
          <mxGeometry relative="1" as="geometry" />
        </mxCell>
        <mxCell id="aS2krTPO7rlLq4S60YUW-21" value="microsserviço&lt;br&gt;consulta" style="aspect=fixed;sketch=0;html=1;dashed=0;whitespace=wrap;verticalLabelPosition=bottom;verticalAlign=top;fillColor=#d5e8d4;strokeColor=#82b366;points=[[0.005,0.63,0],[0.1,0.2,0],[0.9,0.2,0],[0.5,0,0],[0.995,0.63,0],[0.72,0.99,0],[0.5,1,0],[0.28,0.99,0]];shape=mxgraph.kubernetes.icon2;kubernetesLabel=1;prIcon=pod" vertex="1" parent="aS2krTPO7rlLq4S60YUW-16">
          <mxGeometry x="256" y="10" width="83.33" height="80" as="geometry" />
        </mxCell>
        <mxCell id="aS2krTPO7rlLq4S60YUW-23" value="Ações disponíveis" style="swimlane;fontStyle=0;childLayout=stackLayout;horizontal=1;startSize=30;horizontalStack=0;resizeParent=1;resizeParentMax=0;resizeLast=0;collapsible=1;marginBottom=0;whiteSpace=wrap;html=1;" vertex="1" parent="aS2krTPO7rlLq4S60YUW-16">
          <mxGeometry x="230" y="130" width="140" height="120" as="geometry">
            <mxRectangle x="660" y="150" width="140" height="30" as="alternateBounds" />
          </mxGeometry>
        </mxCell>
        <mxCell id="aS2krTPO7rlLq4S60YUW-24" value="- Cadastrar&lt;span style=&quot;white-space: pre;&quot;&gt;&lt;/span&gt;" style="text;strokeColor=none;fillColor=none;align=left;verticalAlign=middle;spacingLeft=4;spacingRight=4;overflow=hidden;points=[[0,0.5],[1,0.5]];portConstraint=eastwest;rotatable=0;whiteSpace=wrap;html=1;" vertex="1" parent="aS2krTPO7rlLq4S60YUW-23">
          <mxGeometry y="30" width="140" height="30" as="geometry" />
        </mxCell>
        <mxCell id="aS2krTPO7rlLq4S60YUW-26" value="- Listar" style="text;strokeColor=none;fillColor=none;align=left;verticalAlign=middle;spacingLeft=4;spacingRight=4;overflow=hidden;points=[[0,0.5],[1,0.5]];portConstraint=eastwest;rotatable=0;whiteSpace=wrap;html=1;" vertex="1" parent="aS2krTPO7rlLq4S60YUW-23">
          <mxGeometry y="60" width="140" height="30" as="geometry" />
        </mxCell>
        <mxCell id="aS2krTPO7rlLq4S60YUW-27" value="- Excluir" style="text;strokeColor=none;fillColor=none;align=left;verticalAlign=middle;spacingLeft=4;spacingRight=4;overflow=hidden;points=[[0,0.5],[1,0.5]];portConstraint=eastwest;rotatable=0;whiteSpace=wrap;html=1;" vertex="1" parent="aS2krTPO7rlLq4S60YUW-23">
          <mxGeometry y="90" width="140" height="30" as="geometry" />
        </mxCell>
        <mxCell id="aS2krTPO7rlLq4S60YUW-109" value="Postgres" style="outlineConnect=0;dashed=0;verticalLabelPosition=bottom;verticalAlign=top;align=center;html=1;shape=mxgraph.aws3.rds;fillColor=#2E73B8;gradientColor=none;" vertex="1" parent="aS2krTPO7rlLq4S60YUW-16">
          <mxGeometry x="450" y="25" width="62.22" height="70" as="geometry" />
        </mxCell>
        <mxCell id="aS2krTPO7rlLq4S60YUW-29" value="Gestão consulta" style="swimlane;horizontal=0;whiteSpace=wrap;html=1;startSize=23;" vertex="1" parent="1">
          <mxGeometry y="610" width="760" height="320" as="geometry" />
        </mxCell>
        <mxCell id="aS2krTPO7rlLq4S60YUW-36" value="Ações disponíveis" style="swimlane;fontStyle=0;childLayout=stackLayout;horizontal=1;startSize=30;horizontalStack=0;resizeParent=1;resizeParentMax=0;resizeLast=0;collapsible=1;marginBottom=0;whiteSpace=wrap;html=1;" vertex="1" parent="aS2krTPO7rlLq4S60YUW-29">
          <mxGeometry x="222.83" y="135" width="140" height="150" as="geometry">
            <mxRectangle x="660" y="150" width="140" height="30" as="alternateBounds" />
          </mxGeometry>
        </mxCell>
        <mxCell id="aS2krTPO7rlLq4S60YUW-37" value="- Cadastrar&lt;span style=&quot;white-space: pre;&quot;&gt;&lt;/span&gt;" style="text;strokeColor=none;fillColor=none;align=left;verticalAlign=middle;spacingLeft=4;spacingRight=4;overflow=hidden;points=[[0,0.5],[1,0.5]];portConstraint=eastwest;rotatable=0;whiteSpace=wrap;html=1;" vertex="1" parent="aS2krTPO7rlLq4S60YUW-36">
          <mxGeometry y="30" width="140" height="30" as="geometry" />
        </mxCell>
        <mxCell id="aS2krTPO7rlLq4S60YUW-38" value="- Listar" style="text;strokeColor=none;fillColor=none;align=left;verticalAlign=middle;spacingLeft=4;spacingRight=4;overflow=hidden;points=[[0,0.5],[1,0.5]];portConstraint=eastwest;rotatable=0;whiteSpace=wrap;html=1;" vertex="1" parent="aS2krTPO7rlLq4S60YUW-36">
          <mxGeometry y="60" width="140" height="30" as="geometry" />
        </mxCell>
        <mxCell id="aS2krTPO7rlLq4S60YUW-39" value="- Atualizar status" style="text;strokeColor=none;fillColor=none;align=left;verticalAlign=middle;spacingLeft=4;spacingRight=4;overflow=hidden;points=[[0,0.5],[1,0.5]];portConstraint=eastwest;rotatable=0;whiteSpace=wrap;html=1;" vertex="1" parent="aS2krTPO7rlLq4S60YUW-36">
          <mxGeometry y="90" width="140" height="30" as="geometry" />
        </mxCell>
        <mxCell id="aS2krTPO7rlLq4S60YUW-119" value="- Excluir" style="text;strokeColor=none;fillColor=none;align=left;verticalAlign=middle;spacingLeft=4;spacingRight=4;overflow=hidden;points=[[0,0.5],[1,0.5]];portConstraint=eastwest;rotatable=0;whiteSpace=wrap;html=1;" vertex="1" parent="aS2krTPO7rlLq4S60YUW-36">
          <mxGeometry y="120" width="140" height="30" as="geometry" />
        </mxCell>
        <mxCell id="aS2krTPO7rlLq4S60YUW-41" style="edgeStyle=orthogonalEdgeStyle;rounded=0;orthogonalLoop=1;jettySize=auto;html=1;entryX=0;entryY=0.5;entryDx=0;entryDy=0;entryPerimeter=0;dashed=1;exitX=0.995;exitY=0.63;exitDx=0;exitDy=0;exitPerimeter=0;" edge="1" parent="aS2krTPO7rlLq4S60YUW-29" source="aS2krTPO7rlLq4S60YUW-117" target="aS2krTPO7rlLq4S60YUW-43">
          <mxGeometry relative="1" as="geometry">
            <mxPoint x="350" y="140" as="sourcePoint" />
            <mxPoint x="445" y="184" as="targetPoint" />
            <Array as="points">
              <mxPoint x="390" y="60" />
              <mxPoint x="390" y="185" />
            </Array>
          </mxGeometry>
        </mxCell>
        <mxCell id="aS2krTPO7rlLq4S60YUW-42" value="" style="edgeStyle=orthogonalEdgeStyle;rounded=0;orthogonalLoop=1;jettySize=auto;html=1;dashed=1;" edge="1" parent="aS2krTPO7rlLq4S60YUW-29" source="aS2krTPO7rlLq4S60YUW-43" target="aS2krTPO7rlLq4S60YUW-45">
          <mxGeometry relative="1" as="geometry" />
        </mxCell>
        <mxCell id="aS2krTPO7rlLq4S60YUW-43" value="&lt;span style=&quot;text-wrap: wrap;&quot;&gt;SQS&lt;/span&gt;&lt;br style=&quot;text-wrap: wrap;&quot;&gt;&lt;span style=&quot;text-wrap: wrap;&quot;&gt;Fila notificação&lt;/span&gt;" style="outlineConnect=0;dashed=0;verticalLabelPosition=bottom;verticalAlign=top;align=center;html=1;shape=mxgraph.aws3.sqs;fillColor=#D9A741;gradientColor=none;" vertex="1" parent="aS2krTPO7rlLq4S60YUW-29">
          <mxGeometry x="450.62" y="150" width="56.76" height="69" as="geometry" />
        </mxCell>
        <mxCell id="aS2krTPO7rlLq4S60YUW-44" value="" style="edgeStyle=orthogonalEdgeStyle;rounded=0;orthogonalLoop=1;jettySize=auto;html=1;entryX=0.005;entryY=0.63;entryDx=0;entryDy=0;entryPerimeter=0;dashed=1;" edge="1" parent="aS2krTPO7rlLq4S60YUW-29" source="aS2krTPO7rlLq4S60YUW-45" target="aS2krTPO7rlLq4S60YUW-46">
          <mxGeometry relative="1" as="geometry" />
        </mxCell>
        <mxCell id="aS2krTPO7rlLq4S60YUW-45" value="Lambda" style="sketch=0;outlineConnect=0;fontColor=#232F3E;gradientColor=none;fillColor=#ED7100;strokeColor=none;dashed=0;verticalLabelPosition=bottom;verticalAlign=top;align=center;html=1;fontSize=12;fontStyle=0;aspect=fixed;pointerEvents=1;shape=mxgraph.aws4.lambda_function;" vertex="1" parent="aS2krTPO7rlLq4S60YUW-29">
          <mxGeometry x="560" y="161" width="48" height="48" as="geometry" />
        </mxCell>
        <mxCell id="aS2krTPO7rlLq4S60YUW-46" value="microsserviço&lt;br&gt;notificação" style="aspect=fixed;sketch=0;html=1;dashed=0;whitespace=wrap;verticalLabelPosition=bottom;verticalAlign=top;fillColor=#fff2cc;strokeColor=#d6b656;points=[[0.005,0.63,0],[0.1,0.2,0],[0.9,0.2,0],[0.5,0,0],[0.995,0.63,0],[0.72,0.99,0],[0.5,1,0],[0.28,0.99,0]];shape=mxgraph.kubernetes.icon2;kubernetesLabel=1;prIcon=pod" vertex="1" parent="aS2krTPO7rlLq4S60YUW-29">
          <mxGeometry x="660" y="135" width="83.33" height="80" as="geometry" />
        </mxCell>
        <mxCell id="aS2krTPO7rlLq4S60YUW-112" value="" style="edgeStyle=orthogonalEdgeStyle;rounded=0;orthogonalLoop=1;jettySize=auto;html=1;" edge="1" parent="aS2krTPO7rlLq4S60YUW-29" source="aS2krTPO7rlLq4S60YUW-113" target="aS2krTPO7rlLq4S60YUW-115">
          <mxGeometry relative="1" as="geometry" />
        </mxCell>
        <mxCell id="aS2krTPO7rlLq4S60YUW-113" value="Usuário" style="shape=umlActor;verticalLabelPosition=bottom;verticalAlign=top;html=1;outlineConnect=0;" vertex="1" parent="aS2krTPO7rlLq4S60YUW-29">
          <mxGeometry x="35.16" y="30" width="30" height="60" as="geometry" />
        </mxCell>
        <mxCell id="aS2krTPO7rlLq4S60YUW-114" value="" style="edgeStyle=orthogonalEdgeStyle;rounded=0;orthogonalLoop=1;jettySize=auto;html=1;entryX=0.005;entryY=0.63;entryDx=0;entryDy=0;entryPerimeter=0;" edge="1" parent="aS2krTPO7rlLq4S60YUW-29" source="aS2krTPO7rlLq4S60YUW-115" target="aS2krTPO7rlLq4S60YUW-117">
          <mxGeometry relative="1" as="geometry" />
        </mxCell>
        <mxCell id="aS2krTPO7rlLq4S60YUW-115" value="Dispositivo" style="verticalLabelPosition=bottom;html=1;verticalAlign=top;align=center;strokeColor=none;fillColor=#00BEF2;shape=mxgraph.azure.computer;pointerEvents=1;" vertex="1" parent="aS2krTPO7rlLq4S60YUW-29">
          <mxGeometry x="115.16" y="37.5" width="50" height="45" as="geometry" />
        </mxCell>
        <mxCell id="aS2krTPO7rlLq4S60YUW-116" value="" style="edgeStyle=orthogonalEdgeStyle;rounded=0;orthogonalLoop=1;jettySize=auto;html=1;exitX=0.995;exitY=0.63;exitDx=0;exitDy=0;exitPerimeter=0;" edge="1" parent="aS2krTPO7rlLq4S60YUW-29" source="aS2krTPO7rlLq4S60YUW-117" target="aS2krTPO7rlLq4S60YUW-118">
          <mxGeometry relative="1" as="geometry" />
        </mxCell>
        <mxCell id="aS2krTPO7rlLq4S60YUW-117" value="microsserviço&lt;br&gt;consulta" style="aspect=fixed;sketch=0;html=1;dashed=0;whitespace=wrap;verticalLabelPosition=bottom;verticalAlign=top;fillColor=#d5e8d4;strokeColor=#82b366;points=[[0.005,0.63,0],[0.1,0.2,0],[0.9,0.2,0],[0.5,0,0],[0.995,0.63,0],[0.72,0.99,0],[0.5,1,0],[0.28,0.99,0]];shape=mxgraph.kubernetes.icon2;kubernetesLabel=1;prIcon=pod" vertex="1" parent="aS2krTPO7rlLq4S60YUW-29">
          <mxGeometry x="251.16" y="10" width="83.33" height="80" as="geometry" />
        </mxCell>
        <mxCell id="aS2krTPO7rlLq4S60YUW-118" value="Postgres" style="outlineConnect=0;dashed=0;verticalLabelPosition=bottom;verticalAlign=top;align=center;html=1;shape=mxgraph.aws3.rds;fillColor=#2E73B8;gradientColor=none;" vertex="1" parent="aS2krTPO7rlLq4S60YUW-29">
          <mxGeometry x="445.16" y="25" width="62.22" height="70" as="geometry" />
        </mxCell>
        <mxCell id="aS2krTPO7rlLq4S60YUW-53" value="Disparo de notificação" style="swimlane;horizontal=0;whiteSpace=wrap;html=1;startSize=23;" vertex="1" parent="1">
          <mxGeometry y="940" width="590" height="200" as="geometry" />
        </mxCell>
        <mxCell id="aS2krTPO7rlLq4S60YUW-126" value="" style="rounded=0;whiteSpace=wrap;html=1;dashed=1;fillColor=none;" vertex="1" parent="aS2krTPO7rlLq4S60YUW-53">
          <mxGeometry x="30" y="39.19" width="550" height="150.81" as="geometry" />
        </mxCell>
        <mxCell id="aS2krTPO7rlLq4S60YUW-121" value="" style="edgeStyle=orthogonalEdgeStyle;rounded=0;orthogonalLoop=1;jettySize=auto;html=1;exitX=0.995;exitY=0.63;exitDx=0;exitDy=0;exitPerimeter=0;" edge="1" parent="aS2krTPO7rlLq4S60YUW-53" source="aS2krTPO7rlLq4S60YUW-54" target="aS2krTPO7rlLq4S60YUW-120">
          <mxGeometry relative="1" as="geometry" />
        </mxCell>
        <mxCell id="aS2krTPO7rlLq4S60YUW-54" value="microsserviço&lt;br&gt;notificação" style="aspect=fixed;sketch=0;html=1;dashed=0;whitespace=wrap;verticalLabelPosition=bottom;verticalAlign=top;fillColor=#fff2cc;strokeColor=#d6b656;points=[[0.005,0.63,0],[0.1,0.2,0],[0.9,0.2,0],[0.5,0,0],[0.995,0.63,0],[0.72,0.99,0],[0.5,1,0],[0.28,0.99,0]];shape=mxgraph.kubernetes.icon2;kubernetesLabel=1;prIcon=pod" vertex="1" parent="aS2krTPO7rlLq4S60YUW-53">
          <mxGeometry x="338.34" y="50.63" width="83.33" height="80" as="geometry" />
        </mxCell>
        <mxCell id="aS2krTPO7rlLq4S60YUW-69" value="Lambda" style="sketch=0;outlineConnect=0;fontColor=#232F3E;gradientColor=none;fillColor=#ED7100;strokeColor=none;dashed=0;verticalLabelPosition=bottom;verticalAlign=top;align=center;html=1;fontSize=12;fontStyle=0;aspect=fixed;pointerEvents=1;shape=mxgraph.aws4.lambda_function;" vertex="1" parent="aS2krTPO7rlLq4S60YUW-53">
          <mxGeometry x="240" y="77.13" width="48" height="48" as="geometry" />
        </mxCell>
        <mxCell id="aS2krTPO7rlLq4S60YUW-70" style="edgeStyle=orthogonalEdgeStyle;rounded=0;orthogonalLoop=1;jettySize=auto;html=1;entryX=0.005;entryY=0.63;entryDx=0;entryDy=0;entryPerimeter=0;" edge="1" parent="aS2krTPO7rlLq4S60YUW-53" source="aS2krTPO7rlLq4S60YUW-69" target="aS2krTPO7rlLq4S60YUW-54">
          <mxGeometry relative="1" as="geometry" />
        </mxCell>
        <mxCell id="aS2krTPO7rlLq4S60YUW-71" value="" style="edgeStyle=orthogonalEdgeStyle;rounded=0;orthogonalLoop=1;jettySize=auto;html=1;" edge="1" parent="aS2krTPO7rlLq4S60YUW-53" source="aS2krTPO7rlLq4S60YUW-72" target="aS2krTPO7rlLq4S60YUW-69">
          <mxGeometry relative="1" as="geometry" />
        </mxCell>
        <mxCell id="aS2krTPO7rlLq4S60YUW-72" value="&lt;span style=&quot;text-wrap: wrap;&quot;&gt;SQS&lt;/span&gt;&lt;br style=&quot;text-wrap: wrap;&quot;&gt;&lt;span style=&quot;text-wrap: wrap;&quot;&gt;Fila notificação&lt;/span&gt;" style="outlineConnect=0;dashed=0;verticalLabelPosition=bottom;verticalAlign=top;align=center;html=1;shape=mxgraph.aws3.sqs;fillColor=#D9A741;gradientColor=none;" vertex="1" parent="aS2krTPO7rlLq4S60YUW-53">
          <mxGeometry x="130" y="66.63" width="56.76" height="69" as="geometry" />
        </mxCell>
        <mxCell id="aS2krTPO7rlLq4S60YUW-120" value="SNS" style="outlineConnect=0;dashed=0;verticalLabelPosition=bottom;verticalAlign=top;align=center;html=1;shape=mxgraph.aws3.sns;fillColor=#D9A741;gradientColor=none;" vertex="1" parent="aS2krTPO7rlLq4S60YUW-53">
          <mxGeometry x="480" y="62.88" width="76.5" height="76.5" as="geometry" />
        </mxCell>
        <mxCell id="aS2krTPO7rlLq4S60YUW-125" value="CloudWatch" style="outlineConnect=0;dashed=0;verticalLabelPosition=bottom;verticalAlign=top;align=center;html=1;shape=mxgraph.aws3.cloudwatch;fillColor=#759C3E;gradientColor=none;" vertex="1" parent="aS2krTPO7rlLq4S60YUW-53">
          <mxGeometry x="50" y="12.88" width="44.35" height="50" as="geometry" />
        </mxCell>
        <mxCell id="aS2krTPO7rlLq4S60YUW-73" value="Gestão de prontuário" style="swimlane;horizontal=0;whiteSpace=wrap;html=1;startSize=23;" vertex="1" parent="1">
          <mxGeometry y="1150" width="590" height="330" as="geometry" />
        </mxCell>
        <mxCell id="aS2krTPO7rlLq4S60YUW-74" value="microsserviço&lt;br&gt;prontuário" style="aspect=fixed;sketch=0;html=1;dashed=0;whitespace=wrap;verticalLabelPosition=bottom;verticalAlign=top;fillColor=#e1d5e7;strokeColor=#9673a6;points=[[0.005,0.63,0],[0.1,0.2,0],[0.9,0.2,0],[0.5,0,0],[0.995,0.63,0],[0.72,0.99,0],[0.5,1,0],[0.28,0.99,0]];shape=mxgraph.kubernetes.icon2;kubernetesLabel=1;prIcon=pod" vertex="1" parent="aS2krTPO7rlLq4S60YUW-73">
          <mxGeometry x="256" y="12.5" width="83.33" height="80" as="geometry" />
        </mxCell>
        <mxCell id="aS2krTPO7rlLq4S60YUW-75" style="edgeStyle=orthogonalEdgeStyle;rounded=0;orthogonalLoop=1;jettySize=auto;html=1;exitX=0.995;exitY=0.63;exitDx=0;exitDy=0;exitPerimeter=0;entryX=0;entryY=0.5;entryDx=0;entryDy=0;entryPerimeter=0;" edge="1" parent="aS2krTPO7rlLq4S60YUW-73" source="aS2krTPO7rlLq4S60YUW-74" target="aS2krTPO7rlLq4S60YUW-79">
          <mxGeometry relative="1" as="geometry">
            <mxPoint x="450" y="67.4705882352946" as="targetPoint" />
          </mxGeometry>
        </mxCell>
        <mxCell id="aS2krTPO7rlLq4S60YUW-76" value="Ações disponíveis" style="swimlane;fontStyle=0;childLayout=stackLayout;horizontal=1;startSize=30;horizontalStack=0;resizeParent=1;resizeParentMax=0;resizeLast=0;collapsible=1;marginBottom=0;whiteSpace=wrap;html=1;" vertex="1" parent="aS2krTPO7rlLq4S60YUW-73">
          <mxGeometry x="150" y="140" width="217.67" height="180" as="geometry">
            <mxRectangle x="227.67" y="140" width="140" height="30" as="alternateBounds" />
          </mxGeometry>
        </mxCell>
        <mxCell id="aS2krTPO7rlLq4S60YUW-77" value="- Cadastrar documento" style="text;strokeColor=none;fillColor=none;align=left;verticalAlign=middle;spacingLeft=4;spacingRight=4;overflow=hidden;points=[[0,0.5],[1,0.5]];portConstraint=eastwest;rotatable=0;whiteSpace=wrap;html=1;" vertex="1" parent="aS2krTPO7rlLq4S60YUW-76">
          <mxGeometry y="30" width="217.67" height="30" as="geometry" />
        </mxCell>
        <mxCell id="aS2krTPO7rlLq4S60YUW-134" value="- Remover documento" style="text;strokeColor=none;fillColor=none;align=left;verticalAlign=middle;spacingLeft=4;spacingRight=4;overflow=hidden;points=[[0,0.5],[1,0.5]];portConstraint=eastwest;rotatable=0;whiteSpace=wrap;html=1;" vertex="1" parent="aS2krTPO7rlLq4S60YUW-76">
          <mxGeometry y="60" width="217.67" height="30" as="geometry" />
        </mxCell>
        <mxCell id="aS2krTPO7rlLq4S60YUW-78" value="- Cadastrar solicitação de acesso" style="text;strokeColor=none;fillColor=none;align=left;verticalAlign=middle;spacingLeft=4;spacingRight=4;overflow=hidden;points=[[0,0.5],[1,0.5]];portConstraint=eastwest;rotatable=0;whiteSpace=wrap;html=1;" vertex="1" parent="aS2krTPO7rlLq4S60YUW-76">
          <mxGeometry y="90" width="217.67" height="30" as="geometry" />
        </mxCell>
        <mxCell id="aS2krTPO7rlLq4S60YUW-133" value="- Cadastrar autorização de acesso" style="text;strokeColor=none;fillColor=none;align=left;verticalAlign=middle;spacingLeft=4;spacingRight=4;overflow=hidden;points=[[0,0.5],[1,0.5]];portConstraint=eastwest;rotatable=0;whiteSpace=wrap;html=1;" vertex="1" parent="aS2krTPO7rlLq4S60YUW-76">
          <mxGeometry y="120" width="217.67" height="30" as="geometry" />
        </mxCell>
        <mxCell id="aS2krTPO7rlLq4S60YUW-135" value="- Revogar acesso" style="text;strokeColor=none;fillColor=none;align=left;verticalAlign=middle;spacingLeft=4;spacingRight=4;overflow=hidden;points=[[0,0.5],[1,0.5]];portConstraint=eastwest;rotatable=0;whiteSpace=wrap;html=1;" vertex="1" parent="aS2krTPO7rlLq4S60YUW-76">
          <mxGeometry y="150" width="217.67" height="30" as="geometry" />
        </mxCell>
        <mxCell id="aS2krTPO7rlLq4S60YUW-79" value="DocumentDB" style="sketch=0;points=[[0,0,0],[0.25,0,0],[0.5,0,0],[0.75,0,0],[1,0,0],[0,1,0],[0.25,1,0],[0.5,1,0],[0.75,1,0],[1,1,0],[0,0.25,0],[0,0.5,0],[0,0.75,0],[1,0.25,0],[1,0.5,0],[1,0.75,0]];outlineConnect=0;fontColor=#232F3E;fillColor=#ffffff;strokeColor=#ED7100;dashed=0;verticalLabelPosition=bottom;verticalAlign=top;align=center;html=1;fontSize=12;fontStyle=0;aspect=fixed;shape=mxgraph.aws4.resourceIcon;resIcon=mxgraph.aws4.documentdb_with_mongodb_compatibility;" vertex="1" parent="aS2krTPO7rlLq4S60YUW-73">
          <mxGeometry x="444.41" y="146" width="78" height="78" as="geometry" />
        </mxCell>
        <mxCell id="aS2krTPO7rlLq4S60YUW-127" value="" style="edgeStyle=orthogonalEdgeStyle;rounded=0;orthogonalLoop=1;jettySize=auto;html=1;" edge="1" parent="aS2krTPO7rlLq4S60YUW-73" source="aS2krTPO7rlLq4S60YUW-128" target="aS2krTPO7rlLq4S60YUW-130">
          <mxGeometry relative="1" as="geometry" />
        </mxCell>
        <mxCell id="aS2krTPO7rlLq4S60YUW-128" value="Usuário" style="shape=umlActor;verticalLabelPosition=bottom;verticalAlign=top;html=1;outlineConnect=0;" vertex="1" parent="aS2krTPO7rlLq4S60YUW-73">
          <mxGeometry x="40" y="33.5" width="30" height="60" as="geometry" />
        </mxCell>
        <mxCell id="aS2krTPO7rlLq4S60YUW-129" value="" style="edgeStyle=orthogonalEdgeStyle;rounded=0;orthogonalLoop=1;jettySize=auto;html=1;entryX=0.005;entryY=0.63;entryDx=0;entryDy=0;entryPerimeter=0;" edge="1" parent="aS2krTPO7rlLq4S60YUW-73" source="aS2krTPO7rlLq4S60YUW-130" target="aS2krTPO7rlLq4S60YUW-74">
          <mxGeometry relative="1" as="geometry">
            <mxPoint x="256" y="70" as="targetPoint" />
          </mxGeometry>
        </mxCell>
        <mxCell id="aS2krTPO7rlLq4S60YUW-130" value="Dispositivo" style="verticalLabelPosition=bottom;html=1;verticalAlign=top;align=center;strokeColor=none;fillColor=#00BEF2;shape=mxgraph.azure.computer;pointerEvents=1;" vertex="1" parent="aS2krTPO7rlLq4S60YUW-73">
          <mxGeometry x="140" y="41" width="50" height="45" as="geometry" />
        </mxCell>
        <mxCell id="aS2krTPO7rlLq4S60YUW-131" value="S3" style="outlineConnect=0;dashed=0;verticalLabelPosition=bottom;verticalAlign=top;align=center;html=1;shape=mxgraph.aws3.s3;fillColor=#E05243;gradientColor=none;" vertex="1" parent="aS2krTPO7rlLq4S60YUW-73">
          <mxGeometry x="445.16" y="17" width="76.5" height="93" as="geometry" />
        </mxCell>
        <mxCell id="aS2krTPO7rlLq4S60YUW-132" style="edgeStyle=orthogonalEdgeStyle;rounded=0;orthogonalLoop=1;jettySize=auto;html=1;entryX=0;entryY=0.5;entryDx=0;entryDy=0;entryPerimeter=0;exitX=0.995;exitY=0.63;exitDx=0;exitDy=0;exitPerimeter=0;" edge="1" parent="aS2krTPO7rlLq4S60YUW-73" source="aS2krTPO7rlLq4S60YUW-74" target="aS2krTPO7rlLq4S60YUW-131">
          <mxGeometry relative="1" as="geometry" />
        </mxCell>
      </root>
    </mxGraphModel>
  </diagram>
</mxfile>
